<svg width="27" height="26" viewBox="0 0 27 26" fill="none" xmlns="http://www.w3.org/2000/svg">
<rect x="0.5" width="26" height="26" rx="13" fill="url(#paint0_linear_259_40616)"/>
<path fill-rule="evenodd" clip-rule="evenodd" d="M19.0684 8.98109C19.2325 9.14518 19.3246 9.3677 19.3246 9.59971C19.3246 9.83173 19.2325 10.0543 19.0684 10.2183L12.51 16.7768C12.4233 16.8634 12.3204 16.9322 12.2072 16.9791C12.0939 17.026 11.9726 17.0502 11.85 17.0502C11.7274 17.0502 11.606 17.026 11.4928 16.9791C11.3795 16.9322 11.2766 16.8634 11.1899 16.7768L7.93143 13.5188C7.84786 13.4381 7.7812 13.3416 7.73535 13.2348C7.68949 13.1281 7.66535 13.0132 7.66434 12.8971C7.66333 12.7809 7.68547 12.6657 7.72946 12.5581C7.77346 12.4506 7.83843 12.3529 7.92059 12.2707C8.00274 12.1886 8.10044 12.1236 8.20797 12.0796C8.31551 12.0356 8.43073 12.0135 8.54691 12.0145C8.66309 12.0155 8.77791 12.0396 8.88466 12.0855C8.99142 12.1314 9.08797 12.198 9.16868 12.2816L11.8497 14.9626L17.8306 8.98109C17.9119 8.89978 18.0083 8.83528 18.1145 8.79127C18.2207 8.74726 18.3346 8.72461 18.4495 8.72461C18.5645 8.72461 18.6783 8.74726 18.7845 8.79127C18.8907 8.83528 18.9872 8.89978 19.0684 8.98109Z" fill="white"/>
<defs>
<linearGradient id="paint0_linear_259_40616" x1="0.5" y1="13" x2="26.5" y2="13" gradientUnits="userSpaceOnUse">
<stop stop-color="#7CCAF1"/>
<stop offset="1" stop-color="#0058E6"/>
</linearGradient>
</defs>
</svg>
