<svg width="24" height="24" viewBox="0 0 24 24" fill="none" xmlns="http://www.w3.org/2000/svg">
<path d="M14.235 19C15.1 19 15.557 20.024 14.98 20.668C14.6049 21.0871 14.1455 21.4223 13.6321 21.6518C13.1186 21.8813 12.5625 22 12 22C11.4376 22 10.8814 21.8813 10.368 21.6518C9.85447 21.4223 9.39516 21.0871 9.02001 20.668C8.46801 20.052 8.86201 19.089 9.65401 19.007L9.76401 19.001L14.235 19ZM12 2C13.358 2 14.506 2.903 14.875 4.141L14.921 4.312L14.929 4.355C16.0316 4.97671 16.9711 5.85086 17.6705 6.9058C18.37 7.96073 18.8095 9.16641 18.953 10.424L18.981 10.711L19 11V13.931L19.021 14.067C19.1579 14.8038 19.5657 15.4627 20.164 15.914L20.331 16.031L20.493 16.13C21.353 16.617 21.053 17.896 20.116 17.994L20 18H4.00001C2.97201 18 2.61301 16.636 3.50701 16.13C3.88804 15.9144 4.21725 15.618 4.47155 15.2616C4.72584 14.9052 4.89905 14.4974 4.97901 14.067L5.00001 13.924L5.00101 10.954C5.06198 9.64788 5.44217 8.37661 6.10829 7.25147C6.77442 6.12632 7.70617 5.18161 8.82201 4.5L9.07001 4.354L9.08001 4.311C9.22107 3.71283 9.54244 3.17241 10.0007 2.76285C10.4589 2.35328 11.0318 2.09432 11.642 2.021L11.824 2.004L12 2Z" fill="#A0A0B2"/>
</svg>
