<svg width="24" height="24" viewBox="0 0 24 24" fill="none" xmlns="http://www.w3.org/2000/svg">
<g clip-path="url(#clip0_373_50895)">
<path d="M3.75 5H18.875C19.6043 5 20.3038 5.295 20.8195 5.8201C21.3353 6.3452 21.625 7.05739 21.625 7.8V8.5C21.625 8.68565 21.6974 8.8637 21.8264 8.99498C21.9553 9.12625 22.1302 9.2 22.3125 9.2C22.4948 9.2 22.6697 9.27375 22.7986 9.40502C22.9276 9.5363 23 9.71435 23 9.9V14.1C23 14.2857 22.9276 14.4637 22.7986 14.595C22.6697 14.7263 22.4948 14.8 22.3125 14.8C22.1302 14.8 21.9553 14.8737 21.8264 15.005C21.6974 15.1363 21.625 15.3143 21.625 15.5V16.2C21.625 16.9426 21.3353 17.6548 20.8195 18.1799C20.3038 18.705 19.6043 19 18.875 19H3.75C3.02065 19 2.32118 18.705 1.80546 18.1799C1.28973 17.6548 1 16.9426 1 16.2V7.8C1 7.05739 1.28973 6.3452 1.80546 5.8201C2.32118 5.295 3.02065 5 3.75 5Z" stroke="#DBDBE9" stroke-width="2" stroke-linecap="round" stroke-linejoin="round"/>
<path d="M5.125 9.19922V14.7992" stroke="#FF3E3E" stroke-width="2" stroke-linecap="round" stroke-linejoin="round"/>
</g>
<defs>
<clipPath id="clip0_373_50895">
<rect width="24" height="24" fill="white"/>
</clipPath>
</defs>
</svg>
