<svg width="20" height="20" viewBox="0 0 20 20" fill="none" xmlns="http://www.w3.org/2000/svg">
<path d="M18.0334 14.1673V11.6673M18.0334 11.6673H1.36676M18.0334 11.6673H9.70009V7.50065H15.5334C16.1965 7.50065 16.8324 7.76404 17.3012 8.23288C17.77 8.70172 18.0334 9.33761 18.0334 10.0007V11.6673ZM1.36676 6.66732V14.1673M3.86676 7.50065C3.86676 7.94268 4.04235 8.3666 4.35492 8.67916C4.66748 8.99172 5.0914 9.16732 5.53343 9.16732C5.97545 9.16732 6.39938 8.99172 6.71194 8.67916C7.0245 8.3666 7.20009 7.94268 7.20009 7.50065C7.20009 7.05862 7.0245 6.6347 6.71194 6.32214C6.39938 6.00958 5.97545 5.83398 5.53343 5.83398C5.0914 5.83398 4.66748 6.00958 4.35492 6.32214C4.04235 6.6347 3.86676 7.05862 3.86676 7.50065Z" stroke="#009EE6" stroke-width="2" stroke-linecap="round" stroke-linejoin="round"/>
</svg>
