<svg width="26" height="26" viewBox="0 0 26 26" fill="none" xmlns="http://www.w3.org/2000/svg">
<rect x="1" y="1" width="24" height="24" rx="12" fill="white"/>
<rect x="1" y="1" width="24" height="24" rx="12" stroke="#DBDBE9" stroke-width="2"/>
<path fill-rule="evenodd" clip-rule="evenodd" d="M18.5687 8.98109C18.7327 9.14518 18.8249 9.3677 18.8249 9.59971C18.8249 9.83173 18.7327 10.0543 18.5687 10.2183L12.0103 16.7768C11.9236 16.8634 11.8207 16.9322 11.7074 16.9791C11.5942 17.026 11.4728 17.0502 11.3502 17.0502C11.2276 17.0502 11.1063 17.026 10.993 16.9791C10.8797 16.9322 10.7768 16.8634 10.6902 16.7768L7.43168 13.5188C7.34811 13.4381 7.28145 13.3416 7.23559 13.2348C7.18973 13.1281 7.16559 13.0132 7.16458 12.8971C7.16357 12.7809 7.18571 12.6657 7.22971 12.5581C7.2737 12.4506 7.33868 12.3529 7.42083 12.2707C7.50299 12.1886 7.60068 12.1236 7.70822 12.0796C7.81575 12.0356 7.93097 12.0135 8.04715 12.0145C8.16334 12.0155 8.27815 12.0396 8.38491 12.0855C8.49166 12.1314 8.58821 12.198 8.66893 12.2816L11.3499 14.9626L17.3308 8.98109C17.4121 8.89978 17.5086 8.83528 17.6148 8.79127C17.721 8.74726 17.8348 8.72461 17.9498 8.72461C18.0647 8.72461 18.1785 8.74726 18.2847 8.79127C18.3909 8.83528 18.4874 8.89978 18.5687 8.98109Z" fill="#DBDBE9"/>
</svg>
