<svg width="16" height="16" viewBox="0 0 16 16" fill="none" xmlns="http://www.w3.org/2000/svg">
<path d="M1.33331 12.6673C1.33331 13.8007 2.19998 14.6673 3.33331 14.6673H12.6666C13.8 14.6673 14.6666 13.8007 14.6666 12.6673V7.33398H1.33331V12.6673ZM12.6666 2.66732H11.3333V2.00065C11.3333 1.60065 11.0666 1.33398 10.6666 1.33398C10.2666 1.33398 9.99998 1.60065 9.99998 2.00065V2.66732H5.99998V2.00065C5.99998 1.60065 5.73331 1.33398 5.33331 1.33398C4.93331 1.33398 4.66665 1.60065 4.66665 2.00065V2.66732H3.33331C2.19998 2.66732 1.33331 3.53398 1.33331 4.66732V6.00065H14.6666V4.66732C14.6666 3.53398 13.8 2.66732 12.6666 2.66732Z" fill="#484856"/>
</svg>
