<svg width="24" height="24" viewBox="0 0 24 24" fill="none" xmlns="http://www.w3.org/2000/svg">
<path d="M12 21.0004C9.48333 21.0004 7.35433 20.1294 5.613 18.3874C3.87167 16.6454 3.00067 14.5164 3 12.0004C3 9.70041 3.75 7.70441 5.25 6.01241C6.75 4.32041 8.66667 3.33307 11 3.05041C11.2167 3.01707 11.4083 3.04641 11.575 3.13841C11.7417 3.23041 11.875 3.35107 11.975 3.50041C12.075 3.64974 12.1293 3.82474 12.138 4.02541C12.1467 4.22607 12.084 4.41774 11.95 4.60041C11.6667 5.03374 11.454 5.49207 11.312 5.97541C11.17 6.45874 11.0993 6.96707 11.1 7.50041C11.1 9.00041 11.625 10.2754 12.675 11.3254C13.725 12.3754 15 12.9004 16.5 12.9004C17.0167 12.9004 17.5293 12.8254 18.038 12.6754C18.5467 12.5254 19.0007 12.3171 19.4 12.0504C19.5833 11.9337 19.771 11.8797 19.963 11.8884C20.155 11.8971 20.3257 11.9427 20.475 12.0254C20.6417 12.1087 20.771 12.2337 20.863 12.4004C20.955 12.5671 20.984 12.7671 20.95 13.0004C20.7167 15.3004 19.7377 17.2087 18.013 18.7254C16.2883 20.2421 14.284 21.0004 12 21.0004Z" fill="#A0A0B2"/>
</svg>
