<svg width="26" height="26" viewBox="0 0 26 26" fill="none" xmlns="http://www.w3.org/2000/svg">
<rect width="26" height="26" rx="13" fill="#8ECE4B"/>
<path fill-rule="evenodd" clip-rule="evenodd" d="M18.5686 8.98109C18.7326 9.14518 18.8247 9.3677 18.8247 9.59971C18.8247 9.83173 18.7326 10.0543 18.5686 10.2183L12.0101 16.7768C11.9235 16.8634 11.8206 16.9322 11.7073 16.9791C11.5941 17.026 11.4727 17.0502 11.3501 17.0502C11.2275 17.0502 11.1061 17.026 10.9929 16.9791C10.8796 16.9322 10.7767 16.8634 10.6901 16.7768L7.43156 13.5188C7.34798 13.4381 7.28133 13.3416 7.23547 13.2348C7.18961 13.1281 7.16547 13.0132 7.16446 12.8971C7.16345 12.7809 7.18559 12.6657 7.22959 12.5581C7.27358 12.4506 7.33855 12.3529 7.42071 12.2707C7.50287 12.1886 7.60056 12.1236 7.7081 12.0796C7.81563 12.0356 7.93085 12.0135 8.04703 12.0145C8.16321 12.0155 8.27803 12.0396 8.38478 12.0855C8.49154 12.1314 8.58809 12.198 8.66881 12.2816L11.3498 14.9626L17.3307 8.98109C17.412 8.89978 17.5085 8.83528 17.6147 8.79127C17.7209 8.74726 17.8347 8.72461 17.9496 8.72461C18.0646 8.72461 18.1784 8.74726 18.2846 8.79127C18.3908 8.83528 18.4873 8.89978 18.5686 8.98109Z" fill="white"/>
</svg>
