<svg width="20" height="20" viewBox="0 0 20 20" fill="none" xmlns="http://www.w3.org/2000/svg">
<path d="M11.6667 0.833984H8.33332C4.16666 0.833984 4.16666 2.50065 4.16666 2.50065V12.5006C4.16666 12.5006 4.16666 14.1673 8.33332 14.1673V15.834H9.16666V16.6673C9.16666 17.6756 9.83332 19.1673 11.6667 19.1673H15V17.5006H11.6667C10.9917 17.5006 10.8333 17.0423 10.8333 16.6673V15.834H11.6667V14.1673C15.8333 14.1673 15.8333 12.5006 15.8333 12.5006V2.50065C15.8333 2.50065 15.8333 0.833984 11.6667 0.833984ZM14.1667 10.0007H11.6667V9.16732H14.1667V10.0007ZM14.1667 4.16732H11.6667V5.00065H14.1667V6.66732H11.6667V7.50065H14.1667V8.33398H5.83332V2.91732C6.08332 2.76732 6.77499 2.50065 8.33332 2.50065H11.6667C13.2333 2.50065 13.9167 2.76732 14.1667 2.91732V4.16732Z" fill="#2C2C3C"/>
</svg>
