<svg width="40" height="40" viewBox="0 0 40 40" fill="none" xmlns="http://www.w3.org/2000/svg">
<path d="M23.3333 1.66602H16.6667C8.33334 1.66602 8.33334 4.99935 8.33334 4.99935V24.9993C8.33334 24.9993 8.33334 28.3327 16.6667 28.3327V31.666H18.3333V33.3327C18.3333 35.3493 19.6667 38.3327 23.3333 38.3327H30V34.9993H23.3333C21.9833 34.9993 21.6667 34.0827 21.6667 33.3327V31.666H23.3333V28.3327C31.6667 28.3327 31.6667 24.9993 31.6667 24.9993V4.99935C31.6667 4.99935 31.6667 1.66602 23.3333 1.66602ZM28.3333 19.9993H23.3333V18.3327H28.3333V19.9993ZM28.3333 8.33268H23.3333V9.99935H28.3333V13.3327H23.3333V14.9993H28.3333V16.666H11.6667V5.83268C12.1667 5.53268 13.55 4.99935 16.6667 4.99935H23.3333C26.4667 4.99935 27.8333 5.53268 28.3333 5.83268V8.33268Z" fill="url(#paint0_linear_291_39121)"/>
<defs>
<linearGradient id="paint0_linear_291_39121" x1="8.33334" y1="19.9993" x2="31.6667" y2="19.9993" gradientUnits="userSpaceOnUse">
<stop stop-color="#7CCAF1"/>
<stop offset="1" stop-color="#0058E6"/>
</linearGradient>
</defs>
</svg>
