<svg width="18" height="18" viewBox="0 0 18 18" fill="none" xmlns="http://www.w3.org/2000/svg">
<path d="M9.75 15.75C9.5375 15.75 9.3595 15.678 9.216 15.534C9.0725 15.39 9.0005 15.212 9 15C8.9995 14.788 9.0715 14.61 9.216 14.466C9.3605 14.322 9.5385 14.25 9.75 14.25H14.25V3.75H9.75C9.5375 3.75 9.3595 3.678 9.216 3.534C9.0725 3.39 9.0005 3.212 9 3C8.9995 2.788 9.0715 2.61 9.216 2.466C9.3605 2.322 9.5385 2.25 9.75 2.25H14.25C14.6625 2.25 15.0158 2.397 15.3098 2.691C15.6038 2.985 15.7505 3.338 15.75 3.75V14.25C15.75 14.6625 15.6033 15.0158 15.3098 15.3098C15.0163 15.6038 14.663 15.7505 14.25 15.75H9.75ZM8.38125 9.75H3C2.7875 9.75 2.6095 9.678 2.466 9.534C2.3225 9.39 2.2505 9.212 2.25 9C2.2495 8.788 2.3215 8.61 2.466 8.466C2.6105 8.322 2.7885 8.25 3 8.25H8.38125L6.975 6.84375C6.8375 6.70625 6.76875 6.5375 6.76875 6.3375C6.76875 6.1375 6.8375 5.9625 6.975 5.8125C7.1125 5.6625 7.2875 5.58425 7.5 5.57775C7.7125 5.57125 7.89375 5.64325 8.04375 5.79375L10.725 8.475C10.875 8.625 10.95 8.8 10.95 9C10.95 9.2 10.875 9.375 10.725 9.525L8.04375 12.2062C7.89375 12.3562 7.71575 12.4282 7.50975 12.4222C7.30375 12.4162 7.1255 12.338 6.975 12.1875C6.8375 12.0375 6.772 11.8595 6.7785 11.6535C6.785 11.4475 6.85675 11.2755 6.99375 11.1375L8.38125 9.75Z" fill="white"/>
</svg>
