<svg width="20" height="20" viewBox="0 0 20 20" fill="none" xmlns="http://www.w3.org/2000/svg">
<g clip-path="url(#clip0_291_38987)">
<path fill-rule="evenodd" clip-rule="evenodd" d="M10 2.50065C9.0151 2.50065 8.03983 2.69464 7.12988 3.07155C6.21994 3.44846 5.39315 4.00091 4.69671 4.69735C4.00027 5.39379 3.44782 6.22058 3.07091 7.13052C2.694 8.04047 2.50001 9.01574 2.50001 10.0007C2.50001 10.9856 2.694 11.9608 3.07091 12.8708C3.44782 13.7807 4.00027 14.6075 4.69671 15.3039C5.39315 16.0004 6.21994 16.5528 7.12988 16.9297C8.03983 17.3067 9.0151 17.5006 10 17.5006C11.9891 17.5006 13.8968 16.7105 15.3033 15.3039C16.7098 13.8974 17.5 11.9898 17.5 10.0007C17.5 8.01153 16.7098 6.10387 15.3033 4.69735C13.8968 3.29083 11.9891 2.50065 10 2.50065ZM0.833344 10.0007C0.833344 4.93815 4.93751 0.833984 10 0.833984C15.0625 0.833984 19.1667 4.93815 19.1667 10.0007C19.1667 15.0631 15.0625 19.1673 10 19.1673C4.93751 19.1673 0.833344 15.0631 0.833344 10.0007Z" fill="white"/>
<path fill-rule="evenodd" clip-rule="evenodd" d="M14.6733 7.5006L8.235 13.9389L5 10.0781L6.25917 8.98643L8.3225 11.4948L13.495 6.32227L14.6733 7.5006Z" fill="white"/>
</g>
<defs>
<clipPath id="clip0_291_38987">
<rect width="20" height="20" fill="white"/>
</clipPath>
</defs>
</svg>
