<svg width="14" height="14" viewBox="0 0 14 14" fill="none" xmlns="http://www.w3.org/2000/svg">
<path fill-rule="evenodd" clip-rule="evenodd" d="M5.25 2.91667C5.25 2.60725 5.37292 2.3105 5.59171 2.09171C5.8105 1.87292 6.10725 1.75 6.41667 1.75H7.58333C7.89275 1.75 8.1895 1.87292 8.40829 2.09171C8.62708 2.3105 8.75 2.60725 8.75 2.91667V5.25H11.0833C11.3928 5.25 11.6895 5.37292 11.9083 5.59171C12.1271 5.8105 12.25 6.10725 12.25 6.41667V7.58333C12.25 7.89275 12.1271 8.1895 11.9083 8.40829C11.6895 8.62708 11.3928 8.75 11.0833 8.75H8.75V11.0833C8.75 11.3928 8.62708 11.6895 8.40829 11.9083C8.1895 12.1271 7.89275 12.25 7.58333 12.25H6.41667C6.10725 12.25 5.8105 12.1271 5.59171 11.9083C5.37292 11.6895 5.25 11.3928 5.25 11.0833V8.75H2.91667C2.60725 8.75 2.3105 8.62708 2.09171 8.40829C1.87292 8.1895 1.75 7.89275 1.75 7.58333V6.41667C1.75 6.10725 1.87292 5.8105 2.09171 5.59171C2.3105 5.37292 2.60725 5.25 2.91667 5.25H5.25V2.91667Z" fill="white"/>
</svg>
