<svg width="26" height="26" viewBox="0 0 26 26" fill="none" xmlns="http://www.w3.org/2000/svg">
<rect x="1" y="1" width="24" height="24" rx="12" fill="#1E1E2F"/>
<rect x="1" y="1" width="24" height="24" rx="12" stroke="#3A3A4A" stroke-width="2"/>
<path fill-rule="evenodd" clip-rule="evenodd" d="M18.5686 8.98304C18.7326 9.14713 18.8247 9.36965 18.8247 9.60167C18.8247 9.83369 18.7326 10.0562 18.5686 10.2203L12.0101 16.7787C11.9235 16.8654 11.8206 16.9342 11.7073 16.9811C11.5941 17.028 11.4727 17.0522 11.3501 17.0522C11.2275 17.0522 11.1061 17.028 10.9929 16.9811C10.8796 16.9342 10.7767 16.8654 10.6901 16.7787L7.43156 13.5208C7.34798 13.4401 7.28133 13.3435 7.23547 13.2368C7.18961 13.13 7.16547 13.0152 7.16446 12.899C7.16345 12.7828 7.18559 12.6676 7.22959 12.5601C7.27358 12.4525 7.33855 12.3549 7.42071 12.2727C7.50287 12.1905 7.60056 12.1256 7.7081 12.0816C7.81563 12.0376 7.93085 12.0154 8.04703 12.0164C8.16321 12.0175 8.27803 12.0416 8.38478 12.0875C8.49154 12.1333 8.58809 12.2 8.66881 12.2835L11.3498 14.9645L17.3307 8.98304C17.412 8.90173 17.5085 8.83723 17.6147 8.79322C17.7209 8.74921 17.8347 8.72656 17.9496 8.72656C18.0646 8.72656 18.1784 8.74921 18.2846 8.79322C18.3908 8.83723 18.4873 8.90173 18.5686 8.98304Z" fill="#3A3A4A"/>
</svg>
