<svg width="24" height="24" viewBox="0 0 24 24" fill="none" xmlns="http://www.w3.org/2000/svg">
<path d="M12.0117 9.15547C11.3109 9.15547 10.6547 9.42734 10.1578 9.92422C9.66329 10.4211 9.38907 11.0773 9.38907 11.7781C9.38907 12.4789 9.66329 13.1352 10.1578 13.632C10.6547 14.1266 11.3109 14.4008 12.0117 14.4008C12.7125 14.4008 13.3688 14.1266 13.8656 13.632C14.3602 13.1352 14.6344 12.4789 14.6344 11.7781C14.6344 11.0773 14.3602 10.4211 13.8656 9.92422C13.6229 9.67967 13.3341 9.48577 13.0158 9.3538C12.6976 9.22183 12.3563 9.15442 12.0117 9.15547ZM21.675 14.675L20.1422 13.3648C20.2149 12.9195 20.2524 12.4648 20.2524 12.0125C20.2524 11.5602 20.2149 11.1031 20.1422 10.6602L21.675 9.35C21.7908 9.25088 21.8737 9.11885 21.9126 8.97148C21.9515 8.82411 21.9447 8.66838 21.893 8.525L21.8719 8.46406C21.45 7.28443 20.818 6.19099 20.0063 5.23672L19.9641 5.1875C19.8655 5.07161 19.7341 4.9883 19.5873 4.94855C19.4404 4.9088 19.285 4.91448 19.1414 4.96484L17.2383 5.64219C16.5352 5.06563 15.7524 4.61094 14.9039 4.29453L14.5359 2.30469C14.5082 2.15479 14.4355 2.01688 14.3275 1.90929C14.2195 1.8017 14.0813 1.72952 13.9313 1.70234L13.868 1.69063C12.6492 1.47031 11.3649 1.47031 10.1461 1.69063L10.0828 1.70234C9.93282 1.72952 9.79463 1.8017 9.68662 1.90929C9.57861 2.01688 9.5059 2.15479 9.47814 2.30469L9.10782 4.30391C8.26741 4.62282 7.48452 5.07641 6.78986 5.64687L4.87267 4.96484C4.72915 4.91408 4.57358 4.9082 4.42664 4.94797C4.2797 4.98774 4.14834 5.07128 4.05001 5.1875L4.00782 5.23672C3.19756 6.192 2.56563 7.28517 2.1422 8.46406L2.12111 8.525C2.01564 8.81797 2.10236 9.14609 2.33907 9.35L3.89064 10.6742C3.81798 11.1148 3.78282 11.5648 3.78282 12.0102C3.78282 12.4602 3.81798 12.9102 3.89064 13.3461L2.34376 14.6703C2.22797 14.7694 2.1451 14.9015 2.10616 15.0488C2.06723 15.1962 2.07407 15.3519 2.12579 15.4953L2.14689 15.5563C2.57111 16.7352 3.19689 17.825 4.01251 18.7836L4.0547 18.8328C4.15326 18.9487 4.28463 19.032 4.43148 19.0718C4.57834 19.1115 4.73379 19.1058 4.87735 19.0555L6.79454 18.3734C7.49298 18.9477 8.2711 19.4023 9.11251 19.7164L9.48282 21.7156C9.51059 21.8655 9.5833 22.0034 9.69131 22.111C9.79932 22.2186 9.9375 22.2908 10.0875 22.318L10.1508 22.3297C11.3815 22.5512 12.6419 22.5512 13.8727 22.3297L13.9359 22.318C14.086 22.2908 14.2241 22.2186 14.3322 22.111C14.4402 22.0034 14.5129 21.8655 14.5406 21.7156L14.9086 19.7258C15.757 19.407 16.5399 18.9547 17.243 18.3781L19.1461 19.0555C19.2896 19.1062 19.4452 19.1121 19.5921 19.0723C19.7391 19.0326 19.8704 18.949 19.9688 18.8328L20.0109 18.7836C20.8266 17.8203 21.4524 16.7352 21.8766 15.5563L21.8977 15.4953C21.9984 15.2047 21.9117 14.8789 21.675 14.675ZM12.0117 15.8984C9.73595 15.8984 7.89142 14.0539 7.89142 11.7781C7.89142 9.50234 9.73595 7.65781 12.0117 7.65781C14.2875 7.65781 16.132 9.50234 16.132 11.7781C16.132 14.0539 14.2875 15.8984 12.0117 15.8984Z" fill="#A0A0B2"/>
</svg>
