<svg width="12" height="12" viewBox="0 0 12 12" fill="none" xmlns="http://www.w3.org/2000/svg">
<g clip-path="url(#clip0_291_38953)">
<g clip-path="url(#clip1_291_38953)">
<path d="M6.00001 0C6.10782 0 6.21564 0.0234375 6.31407 0.0679688L10.7274 1.94063C11.243 2.15859 11.6274 2.66719 11.625 3.28125C11.6133 5.60625 10.657 9.86016 6.61876 11.7938C6.22735 11.9813 5.77267 11.9813 5.38126 11.7938C1.34298 9.86016 0.386729 5.60625 0.375011 3.28125C0.372667 2.66719 0.757042 2.15859 1.27267 1.94063L5.68829 0.0679688C5.78439 0.0234375 5.8922 0 6.00001 0ZM6.00001 1.56563V10.425C9.23439 8.85938 10.1039 5.39297 10.125 3.31406L6.00001 1.56563Z" fill="#484856"/>
</g>
</g>
<defs>
<clipPath id="clip0_291_38953">
<rect width="12" height="12" fill="white"/>
</clipPath>
<clipPath id="clip1_291_38953">
<path d="M0 0H12V12H0V0Z" fill="white"/>
</clipPath>
</defs>
</svg>
