<svg width="40" height="41" viewBox="0 0 40 41" fill="none" xmlns="http://www.w3.org/2000/svg">
<path d="M20 4.08398C29.205 4.08398 36.6667 11.5457 36.6667 20.7507C36.6667 29.9557 29.205 37.4173 20 37.4173C10.795 37.4173 3.33334 29.9557 3.33334 20.7507C3.33334 11.5457 10.795 4.08398 20 4.08398ZM20 10.7507C19.558 10.7507 19.1341 10.9262 18.8215 11.2388C18.5089 11.5514 18.3333 11.9753 18.3333 12.4173V20.7507C18.3334 21.1926 18.5091 21.6165 18.8217 21.929L23.8217 26.929C24.136 27.2326 24.557 27.4006 24.994 27.3968C25.431 27.393 25.849 27.2177 26.158 26.9087C26.4671 26.5997 26.6423 26.1816 26.6461 25.7447C26.6499 25.3077 26.4819 24.8867 26.1783 24.5723L21.6667 20.0607V12.4173C21.6667 11.9753 21.4911 11.5514 21.1785 11.2388C20.866 10.9262 20.442 10.7507 20 10.7507Z" fill="url(#paint0_linear_291_39116)"/>
<defs>
<linearGradient id="paint0_linear_291_39116" x1="3.33334" y1="20.7507" x2="36.6667" y2="20.7507" gradientUnits="userSpaceOnUse">
<stop stop-color="#7CCAF1"/>
<stop offset="1" stop-color="#0058E6"/>
</linearGradient>
</defs>
</svg>
