<svg width="24" height="24" viewBox="0 0 24 24" fill="none" xmlns="http://www.w3.org/2000/svg">
<path d="M2.1 11.1L0 9C1.53333 7.43333 3.325 6.20833 5.375 5.325C7.425 4.44167 9.63333 4 12 4C14.3667 4 16.575 4.44167 18.625 5.325C20.675 6.20833 22.4667 7.43333 24 9L21.9 11.1C20.6167 9.81667 19.1293 8.81267 17.438 8.088C15.7467 7.36333 13.934 7.00067 12 7C10.066 6.99933 8.25367 7.362 6.563 8.088C4.87233 8.814 3.38467 9.818 2.1 11.1Z" fill="#DBDBE9"/>
<path d="M4.25 13.2L6.35 15.35C7.08333 14.6167 7.93333 14.0417 8.9 13.625C9.86667 13.2083 10.9 13 12 13C13.1 13 14.1333 13.2083 15.1 13.625C16.0667 14.0417 16.9167 14.6167 17.65 15.35L19.75 13.25C18.768 12.2507 17.614 11.459 16.288 10.875C14.962 10.291 13.5327 9.99933 12 10C10.4673 10.0007 9.03833 10.2883 7.713 10.863C6.38767 11.4377 5.23333 12.2167 4.25 13.2Z" fill="#2C2C3C"/>
<path d="M10.225 20.275C10.7083 20.7583 11.3 21 12 21C12.7 21 13.2917 20.7583 13.775 20.275C14.2583 19.7917 14.5 19.2 14.5 18.5C14.5 17.8 14.2583 17.2083 13.775 16.725C13.2917 16.2417 12.7 16 12 16C11.3 16 10.7083 16.2417 10.225 16.725C9.74167 17.2083 9.5 17.8 9.5 18.5C9.5 19.2 9.74167 19.7917 10.225 20.275Z" fill="#2C2C3C"/>
</svg>
