<svg width="18" height="18" viewBox="0 0 18 18" fill="none" xmlns="http://www.w3.org/2000/svg">
<rect width="18" height="18" rx="2" fill="white" fill-opacity="0.06"/>
<path d="M3.11974 12.7803V9.3487C3.11974 9.0748 3.1805 8.81231 3.30203 8.56122C3.42356 8.31013 3.59612 8.13619 3.81974 8.03938V6.89999C3.81974 6.43966 3.9847 6.04454 4.31462 5.71461C4.64455 5.38469 5.03967 5.21973 5.5 5.21973H8.125C8.28083 5.21973 8.43265 5.24234 8.58046 5.28757C8.72827 5.3328 8.86812 5.3979 9 5.48286C9.13189 5.3979 9.27173 5.3328 9.41954 5.28757C9.56735 5.24234 9.71917 5.21973 9.875 5.21973H12.5C12.9603 5.21973 13.3555 5.38469 13.6854 5.71461C14.0153 6.04454 14.1803 6.43966 14.1803 6.89999V8.03938C14.4039 8.13619 14.5765 8.31013 14.698 8.56122C14.8195 8.81231 14.8803 9.0748 14.8803 9.3487V12.7803H13.4511V11.7303H4.54892V12.7803H3.11974V12.7803M9.525 7.94999H12.7511V6.89999C12.7511 6.82831 12.727 6.76854 12.6789 6.72069C12.6308 6.67284 12.5711 6.64891 12.5 6.64891H9.77609C9.70495 6.64891 9.64531 6.67297 9.59719 6.7211C9.54907 6.76922 9.525 6.82885 9.525 6.89999V7.94999V7.94999M5.24892 7.94999H8.475V6.89999C8.475 6.82831 8.45094 6.76854 8.40282 6.72069C8.35469 6.67284 8.29506 6.64891 8.22392 6.64891H5.5C5.42886 6.64891 5.36923 6.67297 5.32111 6.7211C5.27298 6.76922 5.24892 6.82885 5.24892 6.89999V7.94999V7.94999" fill="white" fill-opacity="0.5"/>
</svg>
