<svg width="20" height="20" viewBox="0 0 20 20" fill="none" xmlns="http://www.w3.org/2000/svg">
<path d="M18.1083 14.9999L11.4417 3.33319C11.2963 3.0767 11.0855 2.86335 10.8308 2.71492C10.576 2.56649 10.2865 2.48828 9.99167 2.48828C9.69685 2.48828 9.4073 2.56649 9.15257 2.71492C8.89783 2.86335 8.68703 3.0767 8.54167 3.33319L1.875 14.9999C1.72807 15.2543 1.65103 15.5431 1.65168 15.837C1.65233 16.1308 1.73065 16.4192 1.87871 16.673C2.02676 16.9269 2.23929 17.137 2.49475 17.2822C2.7502 17.4274 3.03951 17.5025 3.33334 17.4999H16.6667C16.9591 17.4996 17.2463 17.4223 17.4994 17.2759C17.7525 17.1295 17.9627 16.9191 18.1088 16.6658C18.2548 16.4125 18.3317 16.1252 18.3316 15.8328C18.3316 15.5404 18.2545 15.2531 18.1083 14.9999Z" stroke="#EF4343" stroke-width="1.66667" stroke-linecap="round" stroke-linejoin="round"/>
<path d="M10 7.5V10.8333" stroke="#EF4343" stroke-width="1.66667" stroke-linecap="round" stroke-linejoin="round"/>
<path d="M10 14.166H10.0083" stroke="#EF4343" stroke-width="1.66667" stroke-linecap="round" stroke-linejoin="round"/>
</svg>
