<svg width="15" height="16" viewBox="0 0 15 16" fill="none" xmlns="http://www.w3.org/2000/svg">
<path d="M5.67148 15.1207L5.23778 12.8666C5.0068 12.7753 4.7799 12.6688 4.55708 12.547C4.33426 12.4253 4.12529 12.2821 3.93018 12.1174L1.7617 12.8642L0 9.79811L1.71604 8.30952C1.6981 8.18778 1.68289 8.06605 1.67039 7.94431C1.65789 7.82257 1.65164 7.69458 1.65164 7.56034C1.65164 7.42611 1.65789 7.29812 1.67039 7.17638C1.68289 7.05464 1.6981 6.93291 1.71604 6.81117L0 5.32258L1.7617 2.27771L3.95138 3.01386C4.14649 2.84918 4.35015 2.70775 4.56238 2.58954C4.7746 2.47134 4.99974 2.36658 5.23778 2.27528L5.67148 0H9.17368L9.60738 2.27528C9.83835 2.36658 10.0653 2.47134 10.2881 2.58954C10.5109 2.70775 10.7199 2.84918 10.915 3.01386L13.0835 2.27771L14.8452 5.32258L13.1185 6.81117C13.1365 6.93291 13.1517 7.05464 13.1642 7.17638C13.1767 7.29812 13.1829 7.42611 13.1829 7.56034C13.1829 7.69458 13.1749 7.82257 13.1589 7.94431C13.1428 8.06605 13.1294 8.18778 13.1185 8.30952L14.8452 9.79811L13.0729 12.8642L10.8938 12.1174C10.6987 12.2821 10.495 12.4253 10.2828 12.547C10.0706 12.6688 9.84542 12.7753 9.60738 12.8666L9.17368 15.1207H5.67148V15.1207M7.39078 10.2603C8.14078 10.2603 8.77828 9.99785 9.30328 9.47285C9.82828 8.94785 10.0908 8.31034 10.0908 7.56034C10.0908 6.81034 9.82828 6.17284 9.30328 5.64784C8.77828 5.12284 8.14078 4.86034 7.39078 4.86034C6.64785 4.86034 6.01212 5.12284 5.48358 5.64784C4.95505 6.17284 4.69078 6.81034 4.69078 7.56034C4.69078 8.31034 4.95505 8.94785 5.48358 9.47285C6.01212 9.99785 6.64785 10.2603 7.39078 10.2603V10.2603" fill="white"/>
</svg>
