<svg width="18" height="18" viewBox="0 0 18 18" fill="none" xmlns="http://www.w3.org/2000/svg">
<rect width="18" height="18" rx="2" fill="#64748B" fill-opacity="0.25"/>
<path d="M7.27917 13.3895C7.05598 13.3895 6.8536 13.3251 6.67205 13.1961C6.4905 13.0672 6.3602 12.9009 6.28115 12.6971L5.08469 9.71454H2.51041V8.28535H6.04656L7.27917 11.3225L9.72282 5.28817C9.80186 5.08866 9.93216 4.92581 10.1137 4.79963C10.2953 4.67344 10.4976 4.61035 10.7208 4.61035C10.944 4.61035 11.1464 4.67481 11.3279 4.80374C11.5095 4.93267 11.6398 5.099 11.7188 5.30275L12.9153 8.28535H15.4896V9.71454H11.968L10.7208 6.67742L8.27718 12.7117C8.19814 12.9112 8.06784 13.0741 7.88628 13.2003C7.70473 13.3264 7.50236 13.3895 7.27917 13.3895V13.3895" fill="#94A3B8"/>
</svg>
